<svg viewBox="0 0 90 90" xmlns="http://www.w3.org/2000/svg"><defs><linearGradient x1="0%" y1="-.018%" x2="100%" y2="100.018%" id="a"><stop stop-color="#FF4244" offset="0%"/><stop stop-color="#FF8E3C" offset="100%"/></linearGradient></defs><path d="M86.63 23.584a11.145 11.145 0 0 1 2.645 11.94L83.4 51.484c-1.542 4.19-5.056 7.432-9.398 8.278a12.215 12.215 0 0 1-11.842-4.23L26.938 13.324a.776.776 0 0 0-1.321.233l-11.46 31.001c-.238.64.393 1.262 1.019 1.006l14.062-5.744a6.208 6.208 0 0 1 8.249 3.87c1.038 3.186-.708 6.628-3.784 7.884l-18.37 7.502c-3.4 1.39-7.308 1.144-10.37-.901A11.168 11.168 0 0 1 .697 45.009l13.54-36.616c1.604-4.34 5.258-7.404 9.775-8.195 4.48-.803 9.043.877 11.933 4.393l20.217 24.23 18.595-7.597c4.132-1.687 8.681-.784 11.872 2.36Zm-10.725 12.17c.236-.64-.395-1.261-1.02-1.003L64.61 38.946l6.161 7.387A.776.776 0 0 0 72.1 46.1l3.804-10.346h.002Z" transform="translate(0 15)" fill="url(#a)"/></svg>