<svg xmlns="http://www.w3.org/2000/svg" viewBox="0 0 200 200" role="img" aria-label="lakera-logo-card">
  <style>.bg { fill: #ffffff; } @media (prefers-color-scheme: dark) { .bg { fill: #090d0d; } }</style>
  <rect class="bg" width="200" height="200"/>
  <g fill="#07C983" transform="translate(4 8)">
    <circle cx="164" cy="28" r="28"/>
    <path d="M64 33h23v1h-23zM58 34h34v1h-34zM54 35h42v1h-42zM51 36h48v1h-48zM49 37h53v1h-53zM46 38h59v1h-59zM44 39h63v1h-63zM42 40h67v1h-67zM40 41h71v1h-71zM38 42h74v1h-74zM36 43h78v1h-78zM35 44h81v1h-81zM33 45h84v1h-84zM32 46h84v1h-84zM31 47h84v1h-84zM29 48h86v1h-86zM28 49h86v1h-86zM27 50h86v1h-86zM26 51h87v1h-87zM25 52h87v1h-87zM24 53h88v1h-88zM23 54h88v1h-88zM22 55h89v1h-89zM21 56h90v1h-90zM20 57h90v1h-90zM19 58h91v1h-91zM18 59h92v1h-92zM17 60h93v1h-93zM16 61h93v1h-93zM16 62h93v1h-93zM15 63h94v1h-94zM14 64h95v1h-95zM13 65h96v1h-96zM13 66h96v1h-96zM12 67h97v1h-97zM12 68h97v1h-97zM11 69h98v1h-98zM10 70h100v1h-100zM10 71h100v1h-100zM9 72h101v1h-101zM9 73h101v1h-101zM8 74h103v1h-103zM8 75h103v1h-103zM7 76h104v1h-104zM7 77h105v1h-105zM6 78h106v1h-106zM6 79h107v1h-107zM6 80h36v1h-36zM44 80h69v1h-69zM5 81h37v1h-37zM46 81h68v1h-68zM5 82h36v1h-36zM47 82h68v1h-68zM5 83h35v1h-35zM48 83h68v1h-68zM4 84h35v1h-35zM49 84h67v1h-67zM4 85h35v1h-35zM51 85h66v1h-66zM4 86h34v1h-34zM52 86h64v1h-64zM3 87h34v1h-34zM53 87h63v1h-63zM3 88h33v1h-33zM55 88h60v1h-60zM3 89h33v1h-33zM56 89h58v1h-58zM2 90h33v1h-33zM57 90h56v1h-56zM122 90h2v1h-2zM2 91h32v1h-32zM59 91h54v1h-54zM122 91h5v1h-5zM146 91h2v1h-2zM2 92h31v1h-31zM60 92h52v1h-52zM121 92h9v1h-9zM142 92h6v1h-6zM2 93h31v1h-31zM61 93h50v1h-50zM120 93h28v1h-28zM2 94h30v1h-30zM62 94h48v1h-48zM119 94h29v1h-29zM1 95h30v1h-30zM63 95h47v1h-47zM119 95h30v1h-30zM1 96h30v1h-30zM63 96h46v1h-46zM118 96h31v1h-31zM1 97h29v1h-29zM62 97h46v1h-46zM117 97h32v1h-32zM1 98h28v1h-28zM61 98h46v1h-46zM116 98h33v1h-33zM1 99h27v1h-27zM61 99h46v1h-46zM116 99h33v1h-33zM1 100h27v1h-27zM60 100h46v1h-46zM115 100h34v1h-34zM1 101h28v1h-28zM59 101h46v1h-46zM114 101h35v1h-35zM1 102h29v1h-29zM58 102h47v1h-47zM114 102h35v1h-35zM1 103h30v1h-30zM59 103h45v1h-45zM113 103h37v1h-37zM0 104h33v1h-33zM60 104h43v1h-43zM112 104h38v1h-38zM0 105h34v1h-34zM61 105h41v1h-41zM111 105h39v1h-39zM0 106h35v1h-35zM63 106h39v1h-39zM111 106h39v1h-39zM0 107h37v1h-37zM64 107h37v1h-37zM110 107h40v1h-40zM0 108h38v1h-38zM65 108h35v1h-35zM109 108h41v1h-41zM0 109h39v1h-39zM53 109h2v1h-2zM67 109h32v1h-32zM108 109h42v1h-42zM0 110h40v1h-40zM52 110h4v1h-4zM68 110h31v1h-31zM108 110h42v1h-42zM1 111h41v1h-41zM52 111h5v1h-5zM69 111h29v1h-29zM107 111h43v1h-43zM1 112h42v1h-42zM51 112h7v1h-7zM71 112h14v1h-14zM90 112h7v1h-7zM106 112h44v1h-44zM1 113h43v1h-43zM50 113h10v1h-10zM72 113h9v1h-9zM94 113h2v1h-2zM105 113h44v1h-44zM1 114h45v1h-45zM49 114h12v1h-12zM73 114h6v1h-6zM105 114h44v1h-44zM1 115h46v1h-46zM49 115h13v1h-13zM74 115h3v1h-3zM104 115h45v1h-45zM1 116h63v1h-63zM103 116h46v1h-46zM1 117h64v1h-64zM103 117h46v1h-46zM1 118h65v1h-65zM102 118h47v1h-47zM1 119h67v1h-67zM101 119h48v1h-48zM2 120h67v1h-67zM102 120h47v1h-47zM2 121h68v1h-68zM103 121h45v1h-45zM2 122h68v1h-68zM103 122h45v1h-45zM2 123h68v1h-68zM104 123h44v1h-44zM2 124h68v1h-68zM104 124h44v1h-44zM2 125h68v1h-68zM105 125h43v1h-43zM3 126h66v1h-66zM105 126h42v1h-42zM3 127h66v1h-66zM105 127h42v1h-42zM3 128h66v1h-66zM105 128h42v1h-42zM4 129h65v1h-65zM105 129h42v1h-42zM4 130h65v1h-65zM106 130h40v1h-40zM4 131h65v1h-65zM106 131h40v1h-40zM4 132h65v1h-65zM106 132h40v1h-40zM5 133h65v1h-65zM105 133h40v1h-40zM5 134h65v1h-65zM105 134h40v1h-40zM6 135h64v1h-64zM105 135h39v1h-39zM6 136h64v1h-64zM105 136h39v1h-39zM6 137h64v1h-64zM105 137h39v1h-39zM7 138h64v1h-64zM104 138h39v1h-39zM7 139h64v1h-64zM104 139h39v1h-39zM8 140h63v1h-63zM103 140h39v1h-39zM8 141h64v1h-64zM103 141h39v1h-39zM9 142h63v1h-63zM102 142h39v1h-39zM9 143h64v1h-64zM102 143h39v1h-39zM10 144h64v1h-64zM101 144h39v1h-39zM10 145h65v1h-65zM100 145h40v1h-40zM11 146h65v1h-65zM99 146h40v1h-40zM11 147h66v1h-66zM97 147h41v1h-41zM12 148h67v1h-67zM95 148h43v1h-43zM13 149h68v1h-68zM93 149h44v1h-44zM13 150h125v1h-125zM14 151h123v1h-123zM15 152h121v1h-121zM15 153h121v1h-121zM16 154h119v1h-119zM17 155h117v1h-117zM18 156h115v1h-115zM19 157h113v1h-113zM20 158h111v1h-111zM21 159h109v1h-109zM21 160h109v1h-109zM22 161h107v1h-107zM23 162h105v1h-105zM25 163h101v1h-101zM26 164h99v1h-99zM27 165h97v1h-97zM28 166h95v1h-95zM29 167h93v1h-93zM30 168h91v1h-91zM32 169h87v1h-87zM33 170h85v1h-85zM35 171h81v1h-81zM36 172h79v1h-79zM38 173h75v1h-75zM40 174h71v1h-71zM42 175h67v1h-67zM44 176h63v1h-63zM46 177h59v1h-59zM49 178h53v1h-53zM51 179h49v1h-49zM54 180h43v1h-43zM58 181h35v1h-35zM63 182h25v1h-25zM75 183h1v1h-1z"/>
  </g>
</svg>
