<svg xmlns="http://www.w3.org/2000/svg" viewBox="0 0 60 60" fill="none"><path d="M23.2312 25.1611L23.2312 25.1651C24.079 24.6758 25.0422 24.4173 26.0173 24.4173L26.089 24.4173L26.1904 24.4193C26.2581 24.4212 26.3238 24.4232 26.3914 24.4292L26.4412 24.4332C27.2452 24.4928 28.0094 24.7196 28.7218 25.1114C28.7934 25.1512 28.8631 25.1909 28.9328 25.2327C28.9865 25.2665 29.0402 25.3003 29.0959 25.3361L29.1477 25.3699C29.5875 25.6663 29.9835 26.0263 30.3338 26.4479C30.3815 26.5056 30.4273 26.5633 30.483 26.6369L30.5109 26.6727C30.5467 26.7204 30.5825 26.7701 30.6163 26.8198L30.678 26.9093C30.7059 26.9511 30.7318 26.9929 30.7576 27.0346C30.7795 27.0704 30.8014 27.1062 30.8233 27.142L30.8611 27.2057C31.3507 28.051 31.6094 29.0176 31.6094 29.9961L31.6074 29.9961C31.6074 30.9766 31.3487 31.9412 30.8591 32.7865L30.7736 32.9317C30.7377 32.9894 30.7019 33.045 30.6661 33.1007L30.6382 33.1425C30.1845 33.8088 29.6074 34.3557 28.9089 34.7774C28.8392 34.8191 28.7696 34.8589 28.6979 34.8987C28.6422 34.9305 28.5845 34.9584 28.5268 34.9882L28.4711 35.016C27.9934 35.2487 27.484 35.4118 26.9447 35.5033C26.871 35.5152 26.7974 35.5252 26.7238 35.5351L26.6621 35.5431C26.6024 35.5491 26.5427 35.555 26.481 35.561C26.4452 35.563 26.4094 35.567 26.3735 35.5689C26.3238 35.5729 26.276 35.5749 26.2263 35.5749C26.1845 35.5749 26.1427 35.5769 26.1009 35.5789L26.0253 35.5789L26.0213 35.5789C25.0442 35.5789 24.081 35.3203 23.2332 34.8311L18.067 31.8517L7.73063 37.8263L7.72664 49.7497L18.063 55.7144L28.4034 49.7477L28.4034 43.783C28.4034 42.8025 28.6621 41.8379 29.1517 40.9926L29.2372 40.8474C29.2731 40.7898 29.3089 40.7341 29.3447 40.6784L29.3726 40.6366C29.8263 39.9703 30.4034 39.4234 31.1019 39.0018C31.1716 38.96 31.2412 38.9202 31.3129 38.8804C31.3686 38.8506 31.4243 38.8208 31.484 38.7909L31.5397 38.7631C32.0173 38.5304 32.5268 38.3673 33.0661 38.2758C33.1397 38.2639 33.2134 38.2539 33.287 38.244L33.3487 38.236C33.4084 38.2301 33.4681 38.2241 33.5318 38.2181L33.6373 38.2102C33.687 38.2062 33.7348 38.2042 33.7845 38.2042C33.8263 38.2042 33.8681 38.2022 33.9099 38.2002L33.9855 38.2002L33.9895 38.2002C34.9666 38.2002 35.9298 38.4588 36.7776 38.9481L41.9458 41.9274L52.2861 35.9608L52.2822 24.0334L41.9478 18.0668L36.7796 21.0541L36.7756 21.0461C35.9258 21.5354 34.9646 21.788 33.9815 21.7939L33.9159 21.7939L33.8124 21.7919C33.7447 21.79 33.6791 21.788 33.6114 21.782L33.5616 21.778C32.7577 21.7184 31.9935 21.4916 31.281 21.0998C31.2094 21.06 31.1397 21.0203 31.0701 20.9785C31.0144 20.9447 30.9606 20.9089 30.9069 20.8751L30.8552 20.8413C30.4154 20.5449 30.0193 20.1849 29.6691 19.7633C29.6213 19.7056 29.5755 19.6479 29.5198 19.5743L29.492 19.5385C29.4561 19.4908 29.4203 19.4411 29.3865 19.3914L29.3248 19.3019C29.2969 19.2601 29.2711 19.2183 29.2452 19.1766C29.2233 19.1408 29.1994 19.105 29.1775 19.0672L29.1417 19.0055C28.6522 18.1602 28.3934 17.1936 28.3934 16.2151L28.3915 16.2151L28.3915 10.2524L18.1048 4.31363L18.0551 4.28578L7.71869 10.2604L7.71471 22.1838L18.0511 28.1484L23.2213 25.1651L23.2312 25.1611Z" fill="#191919"></path></svg>