<svg width="24" height="24" viewBox="0 0 88 100" fill="none" xmlns="http://www.w3.org/2000/svg">
<path d="M43.9955 26.1209C43.8712 26.1209 43.7558 26.0854 43.6493 26.0233L22.4471 13.6553C22.234 13.531 22.1008 13.3002 22.1008 13.0605C22.1008 12.8207 22.234 12.5899 22.4382 12.4656L43.6493 0.0976649C43.7558 0.0355145 43.8801 0 43.9955 0C44.1198 0 44.2353 0.0355145 44.3418 0.0887863C44.5549 0.213087 44.6881 0.443931 44.6881 0.683654V25.4195C44.6881 25.6681 44.5549 25.899 44.3418 26.0144C44.2353 26.0854 44.1198 26.1209 43.9955 26.1209ZM43.3119 24.2209V1.89115L24.1696 13.0605L43.3119 24.2209Z" fill="currentColor"/>
<path d="M43.9955 25.8723C43.9156 25.8723 43.8445 25.8546 43.7735 25.8102L22.5713 13.4422C22.4382 13.3623 22.3494 13.2203 22.3494 13.0605C22.3494 12.9007 22.4293 12.7586 22.5713 12.6787L43.7735 0.310755C43.9067 0.230847 44.0754 0.230847 44.2174 0.310755C44.3595 0.390662 44.4394 0.53272 44.4394 0.692536V25.4284C44.4394 25.5882 44.3506 25.7303 44.2174 25.8102C44.1464 25.8457 44.0754 25.8723 43.9955 25.8723ZM23.6723 13.0605L43.5604 24.656V1.4561L23.6723 13.0605Z" fill="currentColor"/>
<path d="M65.1977 62.8962C65.0734 62.8962 64.958 62.8607 64.8514 62.7985L43.6492 50.4306C43.4362 50.3063 43.303 50.0755 43.303 49.8357C43.303 49.596 43.4362 49.3652 43.6492 49.2409L64.8514 36.8729C64.958 36.8108 65.0734 36.7753 65.1977 36.7753C65.322 36.7753 65.4374 36.8108 65.5439 36.8641C65.757 36.9884 65.8902 37.2192 65.8902 37.4589V62.1948C65.8902 62.4434 65.757 62.6742 65.5439 62.7897C65.4374 62.8607 65.322 62.8962 65.1977 62.8962ZM64.514 61.005V38.6664L45.3717 49.8357L64.514 61.005Z" fill="currentColor"/>
<path d="M65.1979 62.6476C65.1179 62.6476 65.0469 62.6299 64.9759 62.5855L43.7737 50.2175C43.6405 50.1376 43.5518 49.9956 43.5518 49.8358C43.5518 49.6759 43.6317 49.5339 43.7737 49.454L64.9759 37.086C65.1091 37.0061 65.2778 37.0061 65.4198 37.086C65.553 37.166 65.6418 37.308 65.6418 37.4678V62.2037C65.6418 62.3635 65.553 62.5056 65.4198 62.5855C65.3577 62.6299 65.2778 62.6476 65.1979 62.6476ZM44.8747 49.8358L64.7628 61.4312V38.2403L44.8747 49.8358Z" fill="currentColor"/>
<path d="M65.1977 87.6321C65.0734 87.6321 64.958 87.5965 64.8514 87.5344L43.6492 75.1665C43.4362 75.0422 43.303 74.8113 43.303 74.5716C43.303 74.3319 43.4362 74.101 43.6492 73.9767L64.8514 61.6088C64.958 61.5467 65.0734 61.5111 65.1977 61.5111C65.322 61.5111 65.4374 61.5467 65.5439 61.5999C65.757 61.7242 65.8902 61.9551 65.8902 62.1948V86.9307C65.8902 87.1793 65.757 87.4101 65.5439 87.5255C65.4374 87.5966 65.322 87.6321 65.1977 87.6321ZM64.514 85.7409V63.4023L45.3717 74.5716L64.514 85.7409Z" fill="currentColor"/>
<path d="M65.1979 87.3835C65.1179 87.3835 65.0469 87.3657 64.9759 87.3213L43.7737 74.9534C43.6405 74.8735 43.5518 74.7314 43.5518 74.5716C43.5518 74.4118 43.6317 74.2697 43.7737 74.1898L64.9759 61.8219C65.1091 61.742 65.2778 61.742 65.4198 61.8219C65.553 61.9018 65.6418 62.0439 65.6418 62.2037V86.9395C65.6418 87.0994 65.553 87.2414 65.4198 87.3213C65.3577 87.3657 65.2778 87.3835 65.1979 87.3835ZM44.8747 74.5716L64.7628 86.1671V62.9761L44.8747 74.5716Z" fill="currentColor"/>
<path d="M22.8378 62.8962C22.7224 62.8962 22.6159 62.8696 22.5093 62.8163L1.28938 50.4306C1.07629 50.3063 0.943115 50.0755 0.943115 49.8357C0.943115 49.596 1.07629 49.3652 1.28938 49.2409L22.5182 36.8552L22.5359 36.8463C22.5892 36.8197 22.6336 36.8108 22.6602 36.8108L22.6958 36.8019C22.7313 36.793 22.7845 36.7664 22.8556 36.7664C22.9088 36.7664 22.9444 36.7753 22.9621 36.7842C23.0331 36.793 23.1131 36.8108 23.193 36.8552L23.2196 36.8729L23.2285 36.8818C23.4238 37.0061 23.5392 37.2281 23.5392 37.4589V62.1948C23.5392 62.328 23.4948 62.4612 23.4238 62.5766L23.5303 62.6831L23.1752 62.8074C23.0598 62.8696 22.9532 62.8962 22.8378 62.8962ZM22.1453 61.0051V57.2228L18.9046 59.1139L22.1453 61.0051ZM17.5373 58.3148L22.1453 55.6246V51.0432L13.604 56.0241L17.5373 58.3148ZM12.2367 55.2251L22.1453 49.4451V44.8548L8.3035 52.9255L12.2367 55.2251ZM6.93619 52.1264L22.1453 43.2567V38.6664L3.00296 49.8357L6.93619 52.1264Z" fill="currentColor"/>
<path d="M23.0597 37.086C23.0064 37.0594 22.9532 37.0505 22.8999 37.0417C22.8821 37.0417 22.8644 37.0239 22.8377 37.0239C22.8022 37.0239 22.7667 37.0417 22.7312 37.0505C22.6957 37.0594 22.6513 37.0594 22.6247 37.0772L1.41362 49.454C1.28044 49.5339 1.19165 49.6759 1.19165 49.8358C1.19165 49.9956 1.27156 50.1376 1.41362 50.2175L22.6158 62.5855C22.6868 62.621 22.7578 62.6476 22.8377 62.6476C22.9177 62.6476 22.9887 62.6299 23.0597 62.5855C23.1929 62.5056 23.2817 62.3635 23.2817 62.2037V61.4312V56.2728V55.2517V50.0932V49.0722V43.9137V42.8838V38.2403V37.4678C23.2817 37.308 23.1929 37.166 23.0597 37.086ZM22.3938 61.4312L18.4073 59.105L22.3938 56.7788V61.4312ZM22.3938 55.7667L17.5372 58.599L13.1156 56.0153L22.3938 50.6082V55.7667ZM22.3938 49.5783L12.2367 55.5003L7.81511 52.9166L22.4027 44.4109V49.5783H22.3938ZM6.93612 52.4194L2.51457 49.8358L12.4409 44.0469L22.3938 38.2403V43.3988L6.93612 52.4194Z" fill="currentColor"/>
<path d="M86.3998 75.2641C86.2844 75.2641 86.1779 75.2375 86.0713 75.1842L64.8514 62.7985C64.6383 62.6742 64.5051 62.4434 64.5051 62.2037C64.5051 61.9639 64.6383 61.7331 64.8514 61.6088L86.0802 49.2231L86.098 49.2142C86.1512 49.1876 86.1956 49.1787 86.2223 49.1787L86.2578 49.1698C86.2933 49.161 86.3466 49.1343 86.4176 49.1343C86.462 49.1343 86.5064 49.1432 86.5241 49.1521C86.5952 49.161 86.6751 49.1787 86.755 49.2231L86.7816 49.2409L86.7905 49.2497C86.9858 49.374 87.1012 49.596 87.1012 49.8269V74.5627C87.1012 74.6959 87.0568 74.8291 86.9858 74.9445L87.0924 75.051L86.7372 75.1753C86.6307 75.2375 86.5153 75.2641 86.3998 75.2641ZM85.7162 73.373V69.5907L82.4755 71.4818L85.7162 73.373ZM81.0993 70.6828L85.7073 67.9925V63.4112L77.1661 68.3921L81.0993 70.6828ZM75.7987 67.593L85.7073 61.813V57.2228L71.8655 65.2934L75.7987 67.593ZM70.4982 64.4944L85.7073 55.6246V51.0343L66.5738 62.2037L70.4982 64.4944Z" fill="currentColor"/>
<path d="M86.6217 49.454C86.5685 49.4273 86.5152 49.4185 86.4619 49.4096C86.4442 49.4096 86.4264 49.3918 86.3998 49.3918C86.3643 49.3918 86.3287 49.4096 86.2932 49.4184C86.2577 49.4273 86.2133 49.4273 86.1867 49.4451L64.9756 61.8219C64.8424 61.9018 64.7537 62.0439 64.7537 62.2037C64.7537 62.3635 64.8336 62.5055 64.9756 62.5855L86.1778 74.9534C86.2488 74.9889 86.3199 75.0155 86.3998 75.0155C86.4797 75.0155 86.5507 74.9978 86.6217 74.9534C86.7549 74.8735 86.8437 74.7314 86.8437 74.5716V73.7992V68.6407V67.6196V62.4612V61.4401V56.2816V55.2606V50.6082V49.8357C86.8437 49.6759 86.7638 49.5339 86.6217 49.454ZM85.9647 73.808L81.9782 71.4818L85.9647 69.1556V73.808ZM85.9647 68.1346L81.1081 70.9669L76.6865 68.3832L85.9736 62.9672V68.1346H85.9647ZM85.9647 61.9551L75.8076 67.8771L71.386 65.2934L85.9736 56.7877V61.9551H85.9647ZM70.4981 64.7874L66.0766 62.2037L76.0029 56.4148L85.9647 50.6082V55.7667L70.4981 64.7874Z" fill="currentColor"/>
<path d="M43.9955 75.2641C43.8801 75.2641 43.7736 75.2375 43.667 75.1842L43.6404 75.1754L43.5782 75.1487V75.1398L22.4471 62.7986C22.234 62.6743 22.1008 62.4434 22.1008 62.2037C22.1008 61.964 22.234 61.7331 22.4471 61.6088L43.6226 49.2586L43.6315 49.2498L43.6581 49.2409L43.6759 49.232L43.6937 49.2231C43.7469 49.1965 43.7913 49.1876 43.818 49.1876L43.8535 49.1787C43.889 49.1699 43.9423 49.1432 44.0133 49.1432C44.0577 49.1432 44.1021 49.1521 44.1198 49.161C44.1909 49.1699 44.2708 49.1876 44.3507 49.232L44.3862 49.2586V49.2675C44.5726 49.3829 44.6881 49.6049 44.6881 49.8358V74.5716C44.6881 74.7225 44.6348 74.8735 44.546 74.9889L44.5815 75.0422L44.3418 75.1665C44.2353 75.2286 44.1198 75.2641 43.9955 75.2641ZM43.3119 73.373V69.5907L40.0712 71.4819L43.3119 73.373ZM38.695 70.6828L43.303 67.9926V63.4112L34.7618 68.3921L38.695 70.6828ZM33.3944 67.593L43.303 61.813V57.2228L29.4612 65.2934L33.3944 67.593ZM28.0939 64.4944L43.303 55.6246V51.0344L24.1696 62.2037L28.0939 64.4944Z" fill="currentColor"/>
<path d="M44.2174 49.454C44.1642 49.4273 44.1109 49.4185 44.0576 49.4096C44.0399 49.4096 44.0221 49.3918 43.9955 49.3918C43.9599 49.3918 43.9244 49.4096 43.8889 49.4184C43.8534 49.4273 43.809 49.4273 43.7824 49.4451L22.5713 61.8219C22.4382 61.9018 22.3494 62.0439 22.3494 62.2037C22.3494 62.3635 22.4293 62.5055 22.5713 62.5855L43.7735 74.9534C43.8445 74.9889 43.9156 75.0155 43.9955 75.0155C44.0754 75.0155 44.1464 74.9978 44.2174 74.9534C44.3506 74.8735 44.4394 74.7314 44.4394 74.5716V73.7992V68.6407V67.6196V62.4612V61.4401V56.2816V55.2606V50.6082V49.8357C44.4394 49.6759 44.3595 49.5339 44.2174 49.454ZM43.5604 73.7992L39.5739 71.473L43.5604 69.1468V73.7992ZM43.5604 68.1346L38.7038 70.9669L34.2822 68.3832L43.5693 62.9672V68.1346H43.5604ZM43.5604 61.9551L33.3944 67.8771L28.9728 65.2934L43.5604 56.7877V61.9551ZM28.0938 64.7874L23.6723 62.2037L33.5986 56.4148L43.5604 50.6082V55.7667L28.0938 64.7874Z" fill="currentColor"/>
<path d="M43.9955 75.2641C43.9245 75.2641 43.8712 75.2464 43.8357 75.2286L43.818 75.2198C43.7736 75.2109 43.7203 75.202 43.667 75.1754H43.6581L43.6315 75.1665L43.6138 75.1576L43.6049 75.1487L22.4471 62.7986C22.234 62.6743 22.1008 62.4434 22.1008 62.2037C22.1008 61.9551 22.234 61.7331 22.4471 61.6088L43.6226 49.2586L43.6315 49.2498L43.6759 49.2231C43.7736 49.1699 43.889 49.1432 44.0044 49.1432C44.1287 49.1432 44.2441 49.1787 44.3507 49.232L44.5904 49.3563L44.5549 49.4096C44.6437 49.525 44.6969 49.6759 44.6969 49.8269V74.5627C44.6969 74.8025 44.5726 75.0244 44.3684 75.1487H44.3596C44.2619 75.202 44.1731 75.2198 44.111 75.2286C44.0843 75.2464 44.0488 75.2641 43.9955 75.2641ZM43.3119 73.373V68.7827L28.1028 59.913L24.1696 62.2037L43.3119 73.373ZM43.3119 67.1846V62.5943L33.3944 56.8144L29.4612 59.105L43.3119 67.1846ZM43.3119 61.0051V56.4237L38.7039 53.7335L34.7706 56.0242L43.3119 61.0051ZM43.3119 54.8167V51.0344L40.0712 52.9255L43.3119 54.8167Z" fill="currentColor"/>
<path d="M44.4394 74.5716V73.7992V69.1556V68.1346V62.9761V61.9551V56.7966V55.7755V50.6082V49.8357C44.4394 49.6759 44.3595 49.5339 44.2174 49.454C44.1464 49.4185 44.0754 49.3918 43.9955 49.3918C43.9156 49.3918 43.8445 49.4096 43.7735 49.454L22.5713 61.8219C22.4382 61.9018 22.3494 62.0439 22.3494 62.2037C22.3494 62.3635 22.4293 62.5055 22.5713 62.5855L43.7735 74.9534C43.809 74.9711 43.8445 74.9711 43.88 74.98C43.9156 74.9889 43.9511 75.0067 43.9866 75.0067C44.0043 75.0067 44.0221 74.9978 44.0487 74.9889C44.102 74.98 44.1642 74.9711 44.2085 74.9445C44.3595 74.8735 44.4394 74.7314 44.4394 74.5716ZM43.5604 55.2517L39.5739 52.9255L43.5604 50.6082V55.2517ZM43.5604 61.4312L34.2734 56.0153L38.6949 53.4316L43.5515 56.2639V61.4312H43.5604ZM43.5604 67.6196L28.9728 59.1139L33.3944 56.5302L43.5515 62.4523V67.6196H43.5604ZM43.5604 68.6407V73.7992L33.6075 67.9925L23.6812 62.2037L28.1027 59.62L43.5604 68.6407Z" fill="currentColor"/>
<path d="M65.1977 87.6321C65.0822 87.6321 64.9757 87.6054 64.8692 87.5522L64.5673 87.4545L64.6383 87.3568C64.5495 87.2414 64.5051 87.0993 64.5051 86.9484V62.2037C64.5051 61.9728 64.6205 61.7509 64.8159 61.6266H64.8248L64.8514 61.6088C64.9402 61.5644 65.0201 61.5467 65.0822 61.5378C65.1089 61.5289 65.1444 61.52 65.1888 61.52C65.2598 61.52 65.3131 61.5378 65.3486 61.5555L65.3664 61.5644C65.4107 61.5733 65.464 61.5822 65.5173 61.6088H65.5262L65.5439 61.6177L65.5706 61.6266L86.755 73.9767C86.9681 74.101 87.1012 74.3319 87.1012 74.5716C87.1012 74.8202 86.9681 75.0422 86.755 75.1665L65.5972 87.5078L65.5883 87.5166L65.5351 87.5433L65.5262 87.5522C65.4285 87.6054 65.3131 87.6321 65.1977 87.6321ZM65.8902 85.7409L69.1309 83.8498L65.8902 81.9586V85.7409ZM70.4982 83.0507L74.4314 80.76L65.8902 75.7791V80.3605L70.4982 83.0507ZM75.7987 79.9609L79.732 77.6702L65.8902 69.5907V74.1809L75.7987 79.9609ZM81.0993 76.8623L85.0325 74.5716L65.8902 63.4023V67.9925L81.0993 76.8623Z" fill="currentColor"/>
<path d="M64.7627 62.2037V62.9761V67.6197V68.6407V73.7992V74.8202V79.9787V80.9997V86.1582V86.9307C64.7627 87.0905 64.8426 87.2325 64.9847 87.3124C65.0557 87.348 65.1267 87.3746 65.2066 87.3746C65.2865 87.3746 65.3576 87.3568 65.4286 87.3124L86.6308 74.9445C86.7639 74.8646 86.8527 74.7226 86.8527 74.5627C86.8527 74.4029 86.7728 74.2609 86.6308 74.181L65.4197 61.8219C65.3842 61.8041 65.3487 61.8041 65.3132 61.7953C65.2777 61.7864 65.2421 61.7686 65.2066 61.7686C65.1889 61.7686 65.1711 61.7775 65.1445 61.7864C65.0912 61.7953 65.0291 61.8041 64.9847 61.8308C64.8426 61.9018 64.7627 62.0439 64.7627 62.2037ZM65.6417 81.5236L69.6282 83.8498L65.6417 86.176V81.5236ZM65.6417 75.3441L74.9287 80.76L70.5072 83.3437L65.6506 80.5114V75.3441H65.6417ZM65.6417 69.1557L80.2293 77.6614L75.8077 80.2451L65.6506 74.323V69.1557H65.6417ZM65.6417 68.1346V62.9761L75.5946 68.7827L85.5209 74.5716L81.0994 77.1553L65.6417 68.1346Z" fill="currentColor"/>
<path d="M43.9955 100C43.8801 100 43.7735 99.9734 43.667 99.9201L43.3651 99.8224L43.4362 99.7247C43.3474 99.6093 43.303 99.4673 43.303 99.3163V74.5716C43.303 74.3407 43.4184 74.1188 43.6137 73.9945L43.6226 73.9856L43.6492 73.9678C43.738 73.9235 43.8179 73.9057 43.8801 73.8968C43.9067 73.8879 43.9422 73.8791 43.9866 73.8791C44.0577 73.8791 44.1109 73.8968 44.1464 73.9146L44.1642 73.9235C44.1997 73.9323 44.253 73.9412 44.2974 73.959C44.3063 73.9678 44.324 73.9678 44.3329 73.9767L44.3595 73.9945L44.3684 74.0034L65.5351 86.3535C65.7482 86.4778 65.8813 86.7087 65.8813 86.9484C65.8813 87.197 65.7482 87.419 65.5351 87.5433L44.3773 99.8846L44.3684 99.8934L44.3151 99.9201L44.2707 99.9467H44.2619C44.1908 99.9822 44.0932 100 43.9955 100ZM44.688 98.1088L47.9287 96.2177L44.688 94.3265V98.1088ZM49.2961 95.4186L53.2293 93.1279L44.688 88.147V92.7284L49.2961 95.4186ZM54.5966 92.3288L58.5298 90.0382L44.688 81.9675V86.5577L54.5966 92.3288ZM59.8971 89.2391L63.8304 86.9484L44.688 75.7791V80.3693L59.8971 89.2391Z" fill="currentColor"/>
<path d="M43.5518 74.5716V75.344V79.9876V81.0086V86.1671V87.1881V92.3466V93.3677V98.5261V99.2986C43.5518 99.4584 43.6317 99.6005 43.7737 99.6804C43.8448 99.7159 43.9158 99.7425 43.9957 99.7425C44.0756 99.7425 44.1466 99.7248 44.2177 99.6804L65.4198 87.3124C65.553 87.2325 65.6418 87.0905 65.6418 86.9307C65.6418 86.7708 65.5619 86.6288 65.4198 86.5489L44.2177 74.1898C44.1821 74.1721 44.1466 74.1721 44.1111 74.1632C44.0756 74.1543 44.0401 74.1366 44.0046 74.1366C43.9868 74.1366 43.9691 74.1454 43.9424 74.1543C43.8891 74.1632 43.827 74.1721 43.7826 74.1987C43.6405 74.2697 43.5518 74.4207 43.5518 74.5716ZM44.4396 93.9004L48.4261 96.2266L44.4396 98.5528V93.9004ZM44.4396 87.712L53.7267 93.1279L49.3051 95.7116L44.4485 92.8793V87.712H44.4396ZM44.4396 81.5236L59.0272 90.0293L54.6057 92.613L44.4485 86.6909V81.5236H44.4396ZM44.4396 80.5025V75.344L54.3926 81.1507L64.3189 86.9395L59.8973 89.5232L44.4396 80.5025Z" fill="currentColor"/>
<path d="M43.9957 50.5283C43.9513 50.5283 43.9069 50.5194 43.8891 50.5105C43.8181 50.5016 43.7382 50.4839 43.6583 50.4395L43.6316 50.4217L43.6228 50.4128C43.4274 50.2885 43.312 50.0666 43.312 49.8357V25.0999C43.312 24.9667 43.3564 24.8335 43.4274 24.7181L43.3209 24.6115L43.676 24.4872C43.7737 24.434 43.8891 24.4073 44.0045 24.4073C44.1288 24.4073 44.2443 24.4429 44.3508 24.4961L44.3774 24.5139L44.3863 24.5228L65.553 36.8641C65.7661 36.9884 65.8992 37.2192 65.8992 37.4589C65.8992 37.6986 65.7661 37.9295 65.553 38.0538L44.3952 50.3951L44.3863 50.404L44.3331 50.4306L44.2887 50.4572H44.2709C44.2354 50.4661 44.2088 50.475 44.1821 50.475L44.1466 50.4839C44.12 50.5105 44.0667 50.5283 43.9957 50.5283ZM44.6882 48.6371L63.8305 37.4678L59.8973 35.1771L44.6882 44.0469V48.6371ZM44.6882 42.4487L58.53 34.378L54.5967 32.0874L44.6882 37.8673V42.4487ZM44.6882 36.2692L53.2294 31.2883L49.2962 28.9976L44.6882 31.6878V36.2692ZM44.6882 30.0808L47.9289 28.1896L44.6882 26.2985V30.0808Z" fill="currentColor"/>
<path d="M43.7737 50.2175C43.7737 50.2175 43.7826 50.2175 43.7737 50.2175C43.827 50.2442 43.8803 50.253 43.9335 50.2619C43.9513 50.2619 43.9691 50.2797 43.9957 50.2797C44.0312 50.2797 44.0667 50.2619 44.1022 50.253C44.1377 50.2442 44.1821 50.2442 44.2088 50.2264L65.4109 37.8585C65.5441 37.7786 65.6329 37.6365 65.6329 37.4767C65.6329 37.3169 65.553 37.1748 65.4109 37.0949L44.2177 24.7181C44.1466 24.6826 44.0756 24.6559 43.9957 24.6559C43.9158 24.6559 43.8448 24.6737 43.7737 24.7181C43.6405 24.798 43.5518 24.9401 43.5518 25.0999V25.8723V31.0308V32.0518V37.2103V38.2314V43.3899V44.4109V49.0544V49.8269C43.5606 49.9956 43.6405 50.1376 43.7737 50.2175ZM44.4396 25.8723L48.4261 28.1985L44.4396 30.5247V25.8723ZM44.4396 31.5369L49.2962 28.7046L53.7178 31.2883L44.4307 36.7042V31.5369H44.4396ZM44.4396 37.7253L54.5968 31.8032L59.0183 34.3869L44.4396 42.8838V37.7253ZM59.8973 34.8841L64.3189 37.4678L54.3926 43.2567L44.4396 49.0633V43.9048L59.8973 34.8841Z" fill="currentColor"/>
<path d="M65.1977 87.6321C65.1533 87.6321 65.1089 87.6232 65.0911 87.6143C65.0201 87.6054 64.9402 87.5877 64.8603 87.5433L64.8159 87.5166L64.807 87.5078C64.6206 87.3835 64.5051 87.1704 64.5051 86.9395V62.2037C64.5051 62.0616 64.5495 61.9373 64.6205 61.8219L64.585 61.7864C64.585 61.7864 64.8159 61.6354 64.8159 61.6266H64.8248L64.8514 61.6177L64.8958 61.5911H64.9135C65.0023 61.5467 65.1089 61.5289 65.2065 61.5289C65.3042 61.5289 65.4107 61.5555 65.4995 61.5911H65.5173L65.5617 61.6177L65.5794 61.6266L65.5883 61.6354L86.755 73.9767C86.9681 74.101 87.1012 74.3319 87.1012 74.5716C87.1012 74.8113 86.9681 75.0422 86.755 75.1665L65.5883 87.5166L65.5617 87.5433L65.5084 87.5522L65.4907 87.561H65.4729C65.4374 87.5788 65.4019 87.5788 65.3752 87.5877L65.3397 87.5966C65.322 87.6143 65.2687 87.6321 65.1977 87.6321ZM65.8902 85.7409L85.0325 74.5716L81.0993 72.2809L65.8902 81.1507V85.7409ZM65.8902 79.5525L79.732 71.4818L75.7987 69.1912L65.8902 74.9711V79.5525ZM65.8902 73.373L74.4314 68.3921L70.4982 66.1014L65.8902 68.7916V73.373ZM65.8902 67.1846L69.1309 65.2934L65.8902 63.4023V67.1846Z" fill="currentColor"/>
<path d="M64.9756 87.3213C64.9845 87.3213 64.9845 87.3213 64.9756 87.3213C65.0289 87.3479 65.0822 87.3568 65.1354 87.3657C65.1532 87.3657 65.171 87.3835 65.1976 87.3835C65.2331 87.3835 65.2686 87.3657 65.3041 87.3568C65.3397 87.3479 65.384 87.3479 65.4107 87.3302L86.6129 74.9623C86.746 74.8824 86.8348 74.7403 86.8348 74.5805C86.8348 74.4207 86.7549 74.2786 86.6129 74.1987L65.4196 61.8219C65.3485 61.7864 65.2775 61.7597 65.1976 61.7597C65.1177 61.7597 65.0467 61.7775 64.9756 61.8219C64.8424 61.9018 64.7537 62.0439 64.7537 62.2037V62.9761V68.1346V69.1556V74.3141V75.3352V80.4936V81.5147V86.1582V86.9307C64.7625 87.0993 64.8424 87.2414 64.9756 87.3213ZM65.6415 62.9761L69.628 65.3023L65.6415 67.6285V62.9761ZM65.6415 68.6407L70.4981 65.8084L74.9197 68.3921L65.6327 73.808V68.6407H65.6415ZM65.6415 74.8291L75.7987 68.907L80.2202 71.4907L65.6327 79.9964V74.8291H65.6415ZM81.0992 71.9879L85.5208 74.5716L75.5945 80.3605L65.6415 86.1671V81.0086L81.0992 71.9879Z" fill="currentColor"/>
<path d="M43.9955 100C43.9511 100 43.9067 99.9911 43.889 99.9822C43.8179 99.9734 43.738 99.9556 43.6581 99.9112L43.6137 99.8846L43.6049 99.8757C43.4184 99.7514 43.303 99.5383 43.303 99.3075V74.5716C43.303 74.4295 43.3474 74.3052 43.4184 74.1898L43.3829 74.1543C43.3829 74.1543 43.6049 74.0034 43.6137 73.9945L43.6226 73.9856L43.6404 73.9767L43.6848 73.9501H43.7025C43.7913 73.9057 43.8978 73.888 43.9955 73.888C44.0932 73.888 44.1997 73.9146 44.2885 73.9501H44.3329L44.3684 73.9856L65.5439 86.3358C65.757 86.4601 65.8902 86.6909 65.8902 86.9307C65.8902 87.1704 65.757 87.4012 65.5439 87.5255L44.3773 99.8668L44.3507 99.8935H44.3329L44.3151 99.9112L44.2707 99.9201C44.2352 99.9379 44.1997 99.9379 44.1731 99.9467L44.1376 99.9556C44.1198 99.9822 44.0665 100 43.9955 100ZM44.688 98.1089L63.8304 86.9395L59.8971 84.6488L44.688 93.5186V98.1089ZM44.688 91.9293L58.5298 83.8587L54.5966 81.568L44.688 87.348V91.9293ZM44.688 85.7409L53.2293 80.76L49.2961 78.4693L44.688 81.1596V85.7409ZM44.688 79.5614L47.9287 77.6703L44.688 75.7791V79.5614Z" fill="currentColor"/>
<path d="M43.7737 99.6892C43.7737 99.6892 43.7737 99.6981 43.7737 99.6892C43.827 99.7159 43.8803 99.7247 43.9335 99.7336C43.9513 99.7336 43.9691 99.7514 43.9957 99.7514C44.0312 99.7514 44.0667 99.7336 44.1022 99.7247C44.1377 99.7159 44.1821 99.7159 44.2088 99.6981L65.4109 87.3302C65.5441 87.2503 65.6329 87.1082 65.6329 86.9484C65.6329 86.7886 65.553 86.6465 65.4109 86.5666L44.2177 74.1898C44.1466 74.1543 44.0756 74.1277 43.9957 74.1277C43.9158 74.1277 43.8448 74.1454 43.7737 74.1898C43.6405 74.2697 43.5518 74.4118 43.5518 74.5716V75.344V80.5025V81.5236V86.682V87.7031V92.8616V93.8826V98.5261V99.2986C43.5518 99.4673 43.6405 99.6182 43.7737 99.6892ZM44.4396 75.344L48.4261 77.6702L44.4396 79.9964V75.344ZM44.4396 81.0086L49.2962 78.1763L53.7178 80.76L44.4307 86.176V81.0086H44.4396ZM44.4396 87.197L54.5968 81.275L59.0183 83.8586L44.4307 92.3644V87.197H44.4396ZM59.8973 84.3647L64.3189 86.9484L54.3926 92.7373L44.4396 98.5439V93.3854L59.8973 84.3647Z" fill="currentColor"/>
<path d="M22.7933 87.6321C22.7489 87.6321 22.7045 87.6232 22.6867 87.6143C22.6157 87.6054 22.5358 87.5877 22.4559 87.5433L22.4293 87.5255L22.4204 87.5166C22.225 87.3923 22.1096 87.1704 22.1096 86.9395V62.2037C22.1096 62.0616 22.154 61.9373 22.225 61.8219L22.1895 61.7864C22.1895 61.7864 22.4204 61.6354 22.4204 61.6266L22.4293 61.6177L22.4559 61.5999L22.5003 61.5733H22.518C22.6068 61.5289 22.7134 61.5111 22.811 61.5111C22.9087 61.5111 23.0152 61.5378 23.104 61.5733H23.1395L23.1751 61.6088L23.1928 61.6177L44.3506 73.959C44.5637 74.0833 44.6969 74.3141 44.6969 74.5538C44.6969 74.7936 44.5637 75.0244 44.3506 75.1487L23.1839 87.5166L23.1751 87.5255L23.1307 87.5433L23.1129 87.5522H23.104C23.0596 87.5699 23.0152 87.5788 22.9886 87.5877H22.9708C22.9176 87.6143 22.8643 87.6321 22.7933 87.6321ZM23.4858 85.7409L42.6281 74.5716L38.6949 72.2809L23.4858 81.1507V85.7409ZM23.4858 79.5525L37.3276 71.4818L33.3944 69.1912L23.4858 74.9711V79.5525ZM23.4858 73.373L32.0271 68.3921L28.0938 66.1014L23.4858 68.7916V73.373ZM23.4858 67.1846L26.7265 65.2934L23.4858 63.4023V67.1846Z" fill="currentColor"/>
<path d="M22.5713 87.3213C22.6246 87.3479 22.6779 87.3568 22.7311 87.3657C22.7489 87.3657 22.7667 87.3835 22.7933 87.3835C22.8288 87.3835 22.8643 87.3657 22.8998 87.3568C22.9354 87.3479 22.9797 87.3479 23.0064 87.3302L44.2085 74.9623C44.3417 74.8824 44.4305 74.7403 44.4305 74.5805C44.4305 74.4207 44.3506 74.2786 44.2085 74.1987L23.0153 61.8219C22.9442 61.7864 22.8732 61.7597 22.7933 61.7597C22.7134 61.7597 22.6424 61.7775 22.5713 61.8219C22.4382 61.9018 22.3494 62.0439 22.3494 62.2037V62.9761V68.1346V69.1556V74.3141V75.3352V80.4936V81.5147V86.1582V86.9307C22.3582 87.0993 22.4382 87.2414 22.5713 87.3213ZM23.2372 62.9761L27.2237 65.3023L23.2372 67.6285V62.9761ZM23.2372 68.6407L28.0938 65.8084L32.5154 68.3921L23.2283 73.808V68.6407H23.2372ZM23.2372 74.8291L33.3944 68.8982L37.8159 71.4818L23.2283 79.9876V74.8291H23.2372ZM38.6949 71.9879L43.1165 74.5716L33.1902 80.3605L23.2372 86.1671V81.0086L38.6949 71.9879Z" fill="currentColor"/>
<path d="M22.7934 87.6321C22.678 87.6321 22.5537 87.5966 22.4471 87.5433L22.385 87.5078V87.4989L1.24495 75.1665C1.14728 75.1132 1.08513 75.0333 1.04074 74.9623C0.943075 74.8468 0.898682 74.7137 0.898682 74.5716C0.898682 74.4295 0.943075 74.3052 1.03186 74.1721C1.07625 74.101 1.1384 74.03 1.23607 73.9679L22.385 61.6443V61.6354L22.456 61.5999L22.4915 61.5822H22.5004C22.5359 61.5733 22.5714 61.5644 22.5892 61.5644L22.6247 61.5555C22.6602 61.5467 22.7224 61.52 22.7934 61.52C22.8555 61.52 22.8999 61.5378 22.9266 61.5467H22.9443C22.9887 61.5555 23.0509 61.5644 23.1219 61.5999L23.1663 61.6266L23.5303 61.8397V87.3124L23.1219 87.5522C23.0153 87.6054 22.8999 87.6321 22.7934 87.6321ZM22.1008 85.7409V81.9586L18.8601 83.8498L22.1008 85.7409ZM16.8536 82.6778V78.8333L13.5596 80.76L16.8536 82.6778ZM18.2386 82.6156L21.4261 80.76L18.2386 78.9044V82.6156ZM11.5708 79.5969V75.7347L8.25907 77.6614L11.5708 79.5969ZM22.1008 79.5525V75.7702L18.8601 77.6614L22.1008 79.5525ZM12.947 79.517L16.1167 77.6702L12.947 75.8235V79.517ZM6.27913 76.5071V72.6361L2.95852 74.5716L6.27913 76.5071ZM16.8536 76.4983V72.6538L13.5596 74.5805L16.8536 76.4983ZM18.2386 76.4272L21.4261 74.5716L18.2386 72.716V76.4272ZM7.65532 76.4184L10.8161 74.5716L7.65532 72.7249V76.4184ZM11.5708 73.4085V69.5463L8.25907 71.473L11.5708 73.4085ZM22.1008 73.373V69.5907L18.8601 71.4818L22.1008 73.373ZM12.947 73.3286L16.1167 71.4818L12.947 69.6351V73.3286ZM16.8536 70.3099V66.4654L13.5596 68.3921L16.8536 70.3099ZM18.2386 70.2477L21.4261 68.3921L18.2386 66.5364V70.2477ZM22.1008 67.1846V63.4023L18.8601 65.2934L22.1008 67.1846Z" fill="currentColor"/>
<path d="M23.0153 61.8219C22.9709 61.7953 22.9176 61.7953 22.8732 61.7864C22.8466 61.7775 22.82 61.7686 22.7933 61.7686C22.7489 61.7686 22.7134 61.7864 22.6779 61.8041C22.6424 61.813 22.6069 61.813 22.5802 61.8308L22.4027 61.9284L17.9989 64.5033L17.111 65.0182L12.7072 67.5841L11.8193 68.0991L7.41553 70.665L6.52767 71.18L2.12387 73.7459L1.36918 74.1898C1.31591 74.2253 1.27152 74.2697 1.236 74.323C1.18273 74.394 1.14722 74.4828 1.14722 74.5716C1.14722 74.6604 1.18273 74.7492 1.236 74.8202C1.27152 74.8735 1.30703 74.9179 1.36918 74.9534L2.12387 75.3973L6.52767 77.9632L7.41553 78.4782L11.8193 81.0441L12.7072 81.5591L17.111 84.125L17.9989 84.64L22.4027 87.2059L22.5802 87.3036C22.6513 87.3391 22.7223 87.3657 22.8022 87.3657C22.8821 87.3657 22.9531 87.348 23.0242 87.3036L23.2905 87.1526V86.1316V81.5413V80.9731V80.5292V79.9609V75.3707V74.8025V74.3496V73.7814V69.1912V68.6229V68.1701V67.6019V63.0116V61.9728L23.0153 61.8219ZM18.3629 83.8498L22.3494 81.5236V86.1671L18.3629 83.8498ZM6.52767 72.201V76.9422L2.47013 74.5716L6.52767 72.201ZM7.40665 72.2987L11.3132 74.5716L7.40665 76.8534V72.2987ZM17.99 78.4693L21.9143 80.76L17.99 83.0507V78.4693ZM17.99 66.1014L21.9143 68.3921L17.99 70.6828V66.1014ZM22.3494 73.8081L18.3629 71.4819L22.3494 69.1557V73.8081ZM22.3494 79.9876L18.3629 77.6614L22.3494 75.3352V79.9876ZM17.99 72.2809L21.9143 74.5716L17.99 76.8623V72.2809ZM17.1021 76.9245L13.0623 74.5716L17.1021 72.2188V76.9245ZM22.3494 67.6197L18.3629 65.2934L22.3494 62.9672V67.6197ZM12.6983 73.7637V69.2L16.6138 71.4819L12.6983 73.7637ZM12.6983 75.3796L16.6138 77.6614L12.6983 79.9432V75.3796ZM17.1021 66.0304V70.7449L13.0623 68.3921L17.1021 66.0304ZM11.8193 69.1201V73.8436L7.77067 71.4819L11.8193 69.1201ZM7.77067 77.6614L11.8193 75.2997V80.0231L7.77067 77.6614ZM17.1021 78.3983V83.1129L13.0623 80.76L17.1021 78.3983Z" fill="currentColor"/>
<path d="M43.9779 100C43.8624 100 43.7559 99.9734 43.6582 99.9201L43.5961 99.8846L22.4294 87.5433C22.3318 87.49 22.2696 87.4101 22.2252 87.3391C22.1364 87.2148 22.092 87.0816 22.092 86.9395C22.092 86.8063 22.1364 86.6732 22.2252 86.54C22.2696 86.469 22.3318 86.3979 22.4294 86.3358L43.676 73.9412H43.6937C43.7293 73.9323 43.7648 73.9235 43.7825 73.9235L43.818 73.9146C43.8536 73.8968 43.9157 73.8791 43.9867 73.8791C44.0489 73.8791 44.0933 73.8968 44.1199 73.9057H44.1377C44.1732 73.9146 44.2265 73.9235 44.2797 73.9412H44.2975L44.3419 73.9678L44.3774 73.9856L44.7237 74.1898V99.6626L44.3153 99.9023H44.3064C44.1909 99.9733 44.0844 100 43.9779 100ZM43.2853 98.1088V94.3265L40.0446 96.2177L43.2853 98.1088ZM38.0381 95.0457V91.2013L34.7441 93.1279L38.0381 95.0457ZM39.4231 94.9836L42.6106 93.1279L39.4231 91.2723V94.9836ZM32.7553 91.9648V88.1026L29.4435 90.0293L32.7553 91.9648ZM43.2853 91.9204V88.1381L40.0446 90.0293L43.2853 91.9204ZM34.1315 91.8849L37.3011 90.0382L34.1315 88.1914V91.8849ZM27.4636 88.8751V85.004L24.143 86.9395L27.4636 88.8751ZM38.0381 88.8662V85.0217L34.7441 86.9484L38.0381 88.8662ZM39.4231 88.804L42.6106 86.9484L39.4231 85.0928V88.804ZM28.8398 88.7863L32.0006 86.9395L28.8398 85.0928V88.7863ZM32.7553 85.7764V81.9142L29.4435 83.8409L32.7553 85.7764ZM43.2853 85.7409V81.9586L40.0446 83.8498L43.2853 85.7409ZM34.1315 85.7054L37.3011 83.8498L34.1315 82.003V85.7054ZM38.0381 82.6778V78.8333L34.7441 80.76L38.0381 82.6778ZM39.4231 82.6156L42.6106 80.76L39.4231 78.9044V82.6156ZM43.2853 79.5525V75.7702L40.0446 77.6614L43.2853 79.5525Z" fill="currentColor"/>
<path d="M44.1996 74.1898C44.1552 74.1632 44.1019 74.1632 44.0576 74.1543C44.0309 74.1454 44.0043 74.1366 43.9776 74.1366C43.9332 74.1366 43.8977 74.1543 43.8622 74.1721C43.8267 74.1809 43.7912 74.1809 43.7646 74.1987L43.587 74.2964L39.1832 76.8623L38.2953 77.3773L33.8915 79.9432L33.0037 80.4581L28.5999 83.0241L27.712 83.539L23.3082 86.1227L22.5535 86.5666C22.5002 86.6021 22.4558 86.6465 22.4203 86.6998C22.3671 86.7708 22.3315 86.8596 22.3315 86.9484C22.3315 87.0461 22.3671 87.126 22.4203 87.197C22.4558 87.2503 22.4914 87.2947 22.5535 87.3302L23.3082 87.7741L27.712 90.34L28.5999 90.855L33.0037 93.4209L33.8915 93.9359L38.2953 96.5018L39.1832 97.0168L43.587 99.5827L43.7646 99.6804C43.8356 99.7159 43.9066 99.7425 43.9865 99.7425C44.0664 99.7425 44.1375 99.7248 44.2085 99.6804L44.4748 99.5294V98.5084V93.9181V93.3499V92.8971V92.3289V87.7386V87.1704V86.7176V86.1493V81.5591V80.9909V80.5292V79.9609V75.3707V74.3496L44.1996 74.1898ZM39.5472 96.2177L43.5337 93.8915V98.535L39.5472 96.2177ZM27.712 84.5778V89.319L23.6545 86.9484L27.712 84.5778ZM28.591 84.6666L32.4976 86.9395L28.591 89.2213V84.6666ZM39.1743 90.8373L43.0987 93.1279L39.1743 95.4186V90.8373ZM39.1743 78.4693L43.0987 80.76L39.1743 83.0507V78.4693ZM43.5337 86.176L39.5472 83.8498L43.5337 81.5236V86.176ZM43.5337 92.3555L39.5472 90.0293L43.5337 87.7031V92.3555ZM39.1743 84.6488L43.0987 86.9395L39.1743 89.2302V84.6488ZM38.2864 89.3013L34.2467 86.9484L38.2864 84.5956V89.3013ZM43.5337 79.9876L39.5472 77.6614L43.5337 75.3352V79.9876ZM33.8826 86.1316V81.568L37.7981 83.8498L33.8826 86.1316ZM33.8826 87.7475L37.7981 90.0293L33.8826 92.3111V87.7475ZM38.2864 78.3983V83.1128L34.2467 80.76L38.2864 78.3983ZM33.0037 81.4881V86.2115L28.955 83.8498L33.0037 81.4881ZM28.955 90.0382L33.0037 87.6765V92.3999L28.955 90.0382ZM38.2864 90.7751V95.4897L34.2467 93.1368L38.2864 90.7751Z" fill="currentColor"/>
<path d="M65.1977 38.1604C65.0822 38.1604 64.9579 38.1248 64.8514 38.0716C64.6383 37.9473 64.5051 37.7164 64.5051 37.4767V12.732C64.5051 12.4834 64.6383 12.2525 64.8514 12.1371C64.9579 12.0749 65.0734 12.0483 65.1977 12.0483C65.322 12.0483 65.4374 12.0838 65.5439 12.146L86.755 24.505C86.9681 24.6293 87.1012 24.8602 87.1012 25.0999C87.1012 25.3485 86.9681 25.5705 86.755 25.6948L65.5528 38.0627C65.4463 38.1248 65.322 38.1604 65.1977 38.1604ZM65.8902 36.2692L85.0325 25.0999L65.8902 13.9306V36.2692Z" fill="currentColor"/>
<path d="M65.1976 37.9117C65.1177 37.9117 65.0467 37.894 64.9756 37.8496C64.8424 37.7697 64.7537 37.6276 64.7537 37.4678V12.7319C64.7537 12.5721 64.8424 12.4301 64.9756 12.3502C65.1177 12.2703 65.2775 12.2703 65.4196 12.3502L86.6217 24.7181C86.7549 24.798 86.8437 24.9401 86.8437 25.0999C86.8437 25.2597 86.7638 25.4018 86.6217 25.4817L65.4196 37.8496C65.3574 37.894 65.2775 37.9117 65.1976 37.9117ZM65.6415 13.5044V36.7042L85.5297 25.1088L65.6415 13.5044Z" fill="currentColor"/>
</svg>
